<svg width="140" height="151" viewBox="0 0 140 151" fill="none" xmlns="http://www.w3.org/2000/svg">
<path d="M58.7347 39L56.5949 45.5569C54.2641 46.5345 51.9332 47.5122 49.6027 48.4905C47.1298 47.9854 44.6506 47.4003 42.1448 47.1071C41.7492 47.5389 31.74 62.4691 31.7429 62.6233C32.204 63.7185 32.9959 64.6606 33.5949 65.6855L70 78.0884L106.405 65.6855C107.004 64.6606 107.796 63.7185 108.257 62.6233C108.259 62.4691 98.2508 47.5389 97.8552 47.1071C95.3494 47.4003 92.8702 47.9854 90.3973 48.4905C88.0668 47.5122 85.7359 46.5345 83.4051 45.5569L81.2653 39H58.7347ZM36.3675 70.1964C36.3224 70.183 36.2316 70.2482 36.2283 70.2703C35.7897 73.7381 34.9328 80.6762 34.9328 80.6762L37.151 89.9771L53.9328 97.3719L69.9999 91.5444L86.067 97.3719L102.849 89.9771L105.067 80.6762C105.067 80.6762 104.21 73.7381 103.772 70.2703C103.768 70.2407 103.607 70.1337 103.607 70.2419C92.6214 74.0296 81.1616 77.6979 69.9998 81.4339C58.838 77.6979 47.3783 74.0296 36.3922 70.2419C36.3922 70.2148 36.3825 70.2012 36.3675 70.1964ZM44.8075 78.4861C50.0783 80.2495 55.3923 82.0008 60.7061 83.7519C60.6262 84.292 60.4915 84.8231 60.3041 85.3376C59.518 87.4019 57.9186 89.0788 55.8576 89.9994C53.7966 90.9201 51.4428 91.0091 49.3142 90.2469C47.1855 89.4847 45.4563 87.9336 44.5069 85.935C43.5575 83.9364 43.4657 81.6539 44.2516 79.5896C44.4086 79.209 44.5943 78.8401 44.8075 78.4861ZM95.1925 78.4861C95.4057 78.8401 95.5915 79.209 95.7484 79.5896C96.5344 81.6539 96.4426 83.9364 95.4931 85.935C94.5437 87.9336 92.8145 89.4847 90.6858 90.2469C88.5571 91.0091 86.2034 90.9201 84.1424 89.9994C82.0814 89.0788 80.482 87.4019 79.6959 85.3376C79.5085 84.8231 79.3738 84.292 79.2939 83.7519C84.6077 82.0008 89.9217 80.2495 95.1925 78.4861ZM32.03 84.3725L28 88.245L34.0372 108.774L53.1186 116.364L52.0918 100.394L33.9962 92.2283L32.03 84.3725ZM107.97 84.3725L106.004 92.2283L87.9082 100.394L86.8814 116.364L105.963 108.774L112 88.245L107.97 84.3725ZM70 94.9468L55.6912 100.438L56.5597 117.69L70 123L83.4403 117.69L84.3088 100.438L70 94.9468Z" fill="url(#paint0_linear_1080_3995)"/>
<rect x="0.5" y="11.5" width="139" height="139" stroke="#616161"/>
<line x1="27.5" y1="151" x2="27.5" y2="11" stroke="#616161"/>
<line x1="112.5" y1="151" x2="112.5" y2="11" stroke="#616161"/>
<line x1="140" y1="123.5" x2="2.18557e-08" y2="123.5" stroke="#616161"/>
<line x1="140" y1="38.5" x2="2.18557e-08" y2="38.5" stroke="#616161"/>
<rect x="56.5" y="123.5" width="27" height="27" stroke="#7D7D7D"/>
<rect x="56.5" y="11.5" width="27" height="27" stroke="#7D7D7D"/>
<rect x="112.5" y="123.5" width="27" height="27" stroke="#7D7D7D"/>
<rect x="112.5" y="11.5" width="27" height="27" stroke="#7D7D7D"/>
<rect x="112.5" y="11.5" width="27" height="27" stroke="#7D7D7D"/>
<rect x="0.5" y="123.5" width="27" height="27" stroke="#7D7D7D"/>
<mask id="path-13-inside-1_1080_3995" fill="white">
<path d="M0 11H28V39H0V11Z"/>
</mask>
<path d="M0 11V12H28V11V10H0V11Z" fill="#7D7D7D" mask="url(#path-13-inside-1_1080_3995)"/>
<path d="M0 11V12H28V11V10H0V11Z" fill="white" fill-opacity="0.2" mask="url(#path-13-inside-1_1080_3995)"/>
<path d="M11.1118 1.63636V6H10.5834V2.19034H10.5578L9.49245 2.89773V2.3608L10.5834 1.63636H11.1118ZM13.9179 1.43182L12.5116 6.65625H12.0514L13.4577 1.43182H13.9179ZM15.9798 6.05966C15.6986 6.05966 15.4479 6.01136 15.2277 5.91477C15.009 5.81818 14.835 5.68395 14.7057 5.51207C14.5779 5.33878 14.5083 5.13778 14.4969 4.90909H15.0338C15.0452 5.04972 15.0935 5.17116 15.1787 5.27344C15.2639 5.37429 15.3754 5.45241 15.5132 5.50781C15.651 5.56321 15.8037 5.59091 15.9713 5.59091C16.1588 5.59091 16.325 5.55824 16.4699 5.4929C16.6148 5.42756 16.7284 5.33665 16.8108 5.22017C16.8932 5.10369 16.9344 4.96875 16.9344 4.81534C16.9344 4.65483 16.8946 4.51349 16.8151 4.39134C16.7355 4.26776 16.6191 4.17116 16.4656 4.10156C16.3122 4.03196 16.1247 3.99716 15.9031 3.99716H15.5537V3.52841H15.9031C16.0764 3.52841 16.2284 3.49716 16.3591 3.43466C16.4912 3.37216 16.5942 3.28409 16.6681 3.17045C16.7433 3.05682 16.781 2.9233 16.781 2.76989C16.781 2.62216 16.7483 2.49361 16.683 2.38423C16.6176 2.27486 16.5253 2.18963 16.406 2.12855C16.2881 2.06747 16.1489 2.03693 15.9884 2.03693C15.8378 2.03693 15.6958 2.06463 15.5622 2.12003C15.4301 2.17401 15.3222 2.25284 15.2384 2.35653C15.1546 2.45881 15.1091 2.58239 15.102 2.72727H14.5906C14.5992 2.49858 14.6681 2.2983 14.7973 2.12642C14.9266 1.95312 15.0956 1.81818 15.3044 1.72159C15.5146 1.625 15.7455 1.5767 15.9969 1.5767C16.2668 1.5767 16.4983 1.63139 16.6915 1.74077C16.8847 1.84872 17.0331 1.99148 17.1368 2.16903C17.2405 2.34659 17.2923 2.53835 17.2923 2.74432C17.2923 2.99006 17.2277 3.19957 17.0985 3.37287C16.9706 3.54616 16.7966 3.66619 16.5764 3.73295V3.76705C16.852 3.8125 17.0672 3.92969 17.222 4.11861C17.3769 4.30611 17.4543 4.53835 17.4543 4.81534C17.4543 5.05256 17.3896 5.26562 17.2604 5.45455C17.1325 5.64205 16.9578 5.78977 16.7362 5.89773C16.5146 6.00568 16.2625 6.05966 15.9798 6.05966Z" fill="white"/>
<path d="M13.2151 23.7273L13.9992 25.0653L14.7833 23.7273H15.3628L14.306 25.3636L15.3628 27H14.7833L13.9992 25.7301L13.2151 27H12.6356L13.6753 25.3636L12.6356 23.7273H13.2151Z" fill="white"/>
<path d="M13.2151 135.727L13.9992 137.065L14.7833 135.727H15.3628L14.306 137.364L15.3628 139H14.7833L13.9992 137.73L13.2151 139H12.6356L13.6753 137.364L12.6356 135.727H13.2151Z" fill="white"/>
<path d="M125.215 135.727L125.999 137.065L126.783 135.727H127.363L126.306 137.364L127.363 139H126.783L125.999 137.73L125.215 139H124.636L125.675 137.364L124.636 135.727H125.215Z" fill="white"/>
<path d="M125.215 23.7273L125.999 25.0653L126.783 23.7273H127.363L126.306 25.3636L127.363 27H126.783L125.999 25.7301L125.215 27H124.636L125.675 25.3636L124.636 23.7273H125.215Z" fill="white"/>
<defs>
<linearGradient id="paint0_linear_1080_3995" x1="41.3763" y1="48.3982" x2="128.348" y2="140.812" gradientUnits="userSpaceOnUse">
<stop stop-color="#FF1300"/>
<stop offset="1" stop-color="#FF6E01"/>
</linearGradient>
</defs>
</svg>
