<svg width="84" height="84" viewBox="0 0 84 84" fill="none" xmlns="http://www.w3.org/2000/svg">
<path d="M30.7347 0L28.5949 6.55686C26.2641 7.53453 23.9332 8.51219 21.6027 9.49051C19.1298 8.9854 16.6506 8.40028 14.1448 8.10714C13.7492 8.53891 3.74005 23.4691 3.74288 23.6233C4.20402 24.7185 4.99595 25.6606 5.59492 26.6855L42 39.0884L78.4051 26.6855C79.0041 25.6606 79.796 24.7185 80.2571 23.6233C80.2591 23.4691 70.2508 8.53891 69.8552 8.10714C67.3494 8.40028 64.8702 8.9854 62.3973 9.49051C60.0668 8.51219 57.7359 7.53453 55.4051 6.55686L53.2653 0H30.7347ZM8.36749 31.1964C8.32239 31.183 8.23161 31.2482 8.22825 31.2703C7.78975 34.7381 6.93278 41.6762 6.93278 41.6762L9.15098 50.9771L25.9328 58.3719L41.9999 52.5444L58.067 58.3719L74.8488 50.9771L77.0671 41.6762C77.0671 41.6762 76.2101 34.7381 75.7716 31.2703C75.7676 31.2407 75.6074 31.1337 75.6074 31.2419C64.6214 35.0296 53.1616 38.6979 41.9998 42.4339C30.838 38.6979 19.3783 35.0296 8.39219 31.2419C8.39219 31.2148 8.38251 31.2012 8.36749 31.1964ZM16.8075 39.4861C22.0783 41.2495 27.3923 43.0008 32.7061 44.7519C32.6262 45.292 32.4915 45.8231 32.3041 46.3376C31.518 48.4019 29.9186 50.0788 27.8576 50.9994C25.7966 51.9201 23.4429 52.0091 21.3142 51.2469C19.1855 50.4847 17.4563 48.9336 16.5069 46.935C15.5575 44.9364 15.4657 42.6539 16.2516 40.5896C16.4086 40.209 16.5943 39.8401 16.8075 39.4861ZM67.1925 39.4861C67.4057 39.8401 67.5915 40.209 67.7484 40.5896C68.5344 42.6539 68.4426 44.9364 67.4931 46.935C66.5437 48.9336 64.8145 50.4847 62.6858 51.2469C60.5571 52.0091 58.2034 51.9201 56.1424 50.9994C54.0814 50.0788 52.482 48.4019 51.6959 46.3376C51.5084 45.8231 51.3738 45.292 51.2939 44.7519C56.6077 43.0008 61.9217 41.2495 67.1925 39.4861ZM4.02996 45.3725L0 49.245L6.03724 69.7742L25.1186 77.3643L24.0918 61.3944L5.99622 53.2283L4.02996 45.3725ZM79.9701 45.3725L78.0038 53.2283L59.9082 61.3944L58.8814 77.3643L77.9628 69.7742L84 49.245L79.9701 45.3725ZM42 55.9468L27.6912 61.4384L28.5597 78.6902L42 84L55.4403 78.6902L56.3088 61.4384L42 55.9468Z" fill="url(#paint0_linear_1063_3759)"/>
<defs>
<linearGradient id="paint0_linear_1063_3759" x1="13.3763" y1="9.39817" x2="100.348" y2="101.812" gradientUnits="userSpaceOnUse">
<stop stop-color="#FF1300"/>
<stop offset="1" stop-color="#FF6E01"/>
</linearGradient>
</defs>
</svg>
