<svg width="706" height="120" viewBox="0 0 706 120" fill="none" xmlns="http://www.w3.org/2000/svg">
<path d="M42.7347 18L40.5949 24.5569C38.2641 25.5345 35.9332 26.5122 33.6027 27.4905C31.1298 26.9854 28.6506 26.4003 26.1448 26.1071C25.7492 26.5389 15.74 41.4691 15.7429 41.6233C16.204 42.7185 16.9959 43.6606 17.5949 44.6855L54 57.0884L90.4051 44.6855C91.0041 43.6606 91.796 42.7185 92.2571 41.6233C92.2591 41.4691 82.2508 26.5389 81.8552 26.1071C79.3494 26.4003 76.8702 26.9854 74.3973 27.4905C72.0668 26.5122 69.7359 25.5345 67.4051 24.5569L65.2653 18H42.7347ZM20.3675 49.1964C20.3224 49.183 20.2316 49.2482 20.2283 49.2703C19.7897 52.7381 18.9328 59.6762 18.9328 59.6762L21.151 68.9771L37.9328 76.3719L53.9999 70.5444L70.067 76.3719L86.8488 68.9771L89.0671 59.6762C89.0671 59.6762 88.2101 52.7381 87.7716 49.2703C87.7676 49.2407 87.6074 49.1337 87.6074 49.2419C76.6214 53.0296 65.1616 56.6979 53.9998 60.4339C42.838 56.6979 31.3783 53.0296 20.3922 49.2419C20.3922 49.2148 20.3825 49.2012 20.3675 49.1964ZM28.8075 57.4861C34.0783 59.2495 39.3923 61.0008 44.7061 62.7519C44.6262 63.292 44.4915 63.8231 44.3041 64.3376C43.518 66.4019 41.9186 68.0788 39.8576 68.9994C37.7966 69.9201 35.4428 70.0091 33.3142 69.2469C31.1855 68.4847 29.4563 66.9336 28.5069 64.935C27.5575 62.9364 27.4657 60.6539 28.2516 58.5896C28.4086 58.209 28.5943 57.8401 28.8075 57.4861ZM79.1925 57.4861C79.4057 57.8401 79.5915 58.209 79.7484 58.5896C80.5344 60.6539 80.4426 62.9364 79.4931 64.935C78.5437 66.9336 76.8145 68.4847 74.6858 69.2469C72.5571 70.0091 70.2034 69.9201 68.1424 68.9994C66.0814 68.0788 64.482 66.4019 63.6959 64.3376C63.5085 63.8231 63.3738 63.292 63.2939 62.7519C68.6077 61.0008 73.9217 59.2495 79.1925 57.4861ZM16.03 63.3725L12 67.245L18.0372 87.7742L37.1186 95.3643L36.0918 79.3944L17.9962 71.2283L16.03 63.3725ZM91.9701 63.3725L90.0038 71.2283L71.9082 79.3944L70.8814 95.3643L89.9628 87.7742L96 67.245L91.9701 63.3725ZM54 73.9468L39.6912 79.4384L40.5597 96.6902L54 102L67.4403 96.6902L68.3088 79.4384L54 73.9468Z" fill="url(#paint0_linear_1063_3754)"/>
<path d="M126.432 94V29.872H153.984C161.92 29.872 167.968 31.536 172.128 34.864C176.352 38.192 178.464 43.184 178.464 49.84C178.464 55.152 177.152 59.344 174.528 62.416C171.904 65.424 168.128 67.504 163.2 68.656L181.728 94H165.312L148.608 69.712H140.448V94H126.432ZM140.448 58.672H151.68C156.096 58.672 159.296 58 161.28 56.656C163.328 55.248 164.352 53.008 164.352 49.936C164.352 46.8 163.36 44.56 161.376 43.216C159.392 41.808 156.16 41.104 151.68 41.104H140.448V58.672ZM209.135 94.96C204.463 94.96 200.207 94.096 196.367 92.368C192.527 90.576 189.455 87.952 187.151 84.496C184.847 80.976 183.695 76.624 183.695 71.44C183.695 66.64 184.751 62.48 186.863 58.96C188.975 55.44 191.823 52.72 195.407 50.8C198.991 48.88 203.023 47.92 207.503 47.92C212.047 47.92 216.015 48.752 219.407 50.416C222.863 52.08 225.551 54.416 227.471 57.424C229.391 60.368 230.351 63.76 230.351 67.6C230.351 68.752 230.191 70.032 229.871 71.44C229.551 72.784 229.135 73.936 228.623 74.896H197.231C197.551 76.944 198.255 78.672 199.343 80.08C200.431 81.424 201.935 82.448 203.855 83.152C205.775 83.856 207.983 84.208 210.479 84.208C213.103 84.208 215.567 83.824 217.871 83.056C220.175 82.224 222.351 81.136 224.399 79.792L228.431 89.104C225.679 91.024 222.671 92.496 219.407 93.52C216.207 94.48 212.783 94.96 209.135 94.96ZM197.231 66.256H216.719C216.783 66.128 216.815 66 216.815 65.872C216.815 65.744 216.815 65.552 216.815 65.296C216.815 63.824 216.495 62.576 215.855 61.552C215.215 60.464 214.223 59.632 212.879 59.056C211.599 58.416 209.935 58.096 207.887 58.096C206.031 58.096 204.335 58.448 202.799 59.152C201.327 59.792 200.111 60.72 199.151 61.936C198.191 63.152 197.551 64.592 197.231 66.256ZM257.093 94.96C253.061 94.96 249.413 94.032 246.149 92.176C242.885 90.256 240.293 87.536 238.373 84.016C236.453 80.432 235.493 76.24 235.493 71.44C235.493 66.576 236.453 62.384 238.373 58.864C240.293 55.344 242.885 52.656 246.149 50.8C249.413 48.88 253.061 47.92 257.093 47.92C260.165 47.92 262.853 48.464 265.157 49.552C267.461 50.576 269.317 51.984 270.725 53.776V29.872H284.069V94H271.493V88.24C270.085 90.288 268.133 91.92 265.637 93.136C263.205 94.352 260.357 94.96 257.093 94.96ZM260.165 83.44C262.405 83.44 264.357 82.96 266.021 82C267.685 81.04 268.997 79.664 269.957 77.872C270.917 76.016 271.397 73.872 271.397 71.44C271.397 68.944 270.917 66.8 269.957 65.008C268.997 63.216 267.685 61.84 266.021 60.88C264.357 59.92 262.405 59.44 260.165 59.44C257.989 59.44 256.037 59.92 254.309 60.88C252.645 61.84 251.333 63.216 250.373 65.008C249.477 66.8 249.029 68.944 249.029 71.44C249.029 73.872 249.477 76.016 250.373 77.872C251.333 79.664 252.645 81.04 254.309 82C256.037 82.96 257.989 83.44 260.165 83.44ZM316.091 94.96C311.291 94.96 307.003 94 303.227 92.08C299.515 90.096 296.603 87.344 294.491 83.824C292.379 80.24 291.323 76.112 291.323 71.44C291.323 66.704 292.379 62.576 294.491 59.056C296.603 55.536 299.515 52.816 303.227 50.896C306.939 48.912 311.227 47.92 316.091 47.92C320.955 47.92 325.243 48.912 328.955 50.896C332.667 52.816 335.579 55.536 337.691 59.056C339.803 62.576 340.859 66.704 340.859 71.44C340.859 76.112 339.803 80.24 337.691 83.824C335.579 87.344 332.667 90.096 328.955 92.08C325.243 94 320.955 94.96 316.091 94.96ZM316.091 83.44C318.331 83.44 320.283 82.96 321.947 82C323.675 81.04 324.987 79.664 325.883 77.872C326.843 76.016 327.323 73.872 327.323 71.44C327.323 68.944 326.843 66.8 325.883 65.008C324.987 63.216 323.675 61.84 321.947 60.88C320.283 59.92 318.331 59.44 316.091 59.44C313.851 59.44 311.867 59.92 310.139 60.88C308.475 61.84 307.163 63.216 306.203 65.008C305.307 66.8 304.859 68.944 304.859 71.44C304.859 73.872 305.307 76.016 306.203 77.872C307.163 79.664 308.475 81.04 310.139 82C311.867 82.96 313.851 83.44 316.091 83.44ZM369.356 94.576C363.724 94.576 359.66 93.36 357.164 90.928C354.732 88.496 353.516 84.752 353.516 79.696V59.728H344.396V48.88H353.516V36.016H366.86V48.88H377.804V59.728H366.86V78.352C366.86 80.144 367.308 81.488 368.204 82.384C369.164 83.28 370.54 83.728 372.332 83.728C373.1 83.728 374.028 83.696 375.116 83.632C376.204 83.568 377.1 83.472 377.804 83.344V93.616C376.716 93.936 375.404 94.16 373.868 94.288C372.396 94.48 370.892 94.576 369.356 94.576Z" fill="white"/>
<path d="M405.912 94V29.872H452.568V41.68H419.928V55.408H449.688V66.544H419.928V82.192H452.568V94H405.912ZM460.882 94V48.88H473.458V54.352C474.866 52.368 476.722 50.8 479.026 49.648C481.33 48.496 484.21 47.92 487.666 47.92C492.722 47.92 496.722 49.392 499.666 52.336C502.611 55.216 504.083 59.696 504.083 65.776V94H490.834V67.792C490.834 64.976 490.226 62.896 489.01 61.552C487.858 60.144 486.034 59.44 483.538 59.44C480.658 59.44 478.354 60.4 476.626 62.32C474.962 64.176 474.13 66.896 474.13 70.48V94H460.882ZM534.449 112.432C530.545 112.432 526.865 111.856 523.409 110.704C519.953 109.616 516.657 107.888 513.521 105.52L517.649 95.824C520.657 97.808 523.505 99.216 526.193 100.048C528.881 100.88 531.441 101.296 533.873 101.296C537.841 101.296 540.977 100.304 543.281 98.32C545.585 96.336 546.737 93.424 546.737 89.584V86.416C545.329 88.08 543.473 89.456 541.169 90.544C538.929 91.568 536.241 92.08 533.105 92.08C529.393 92.08 525.873 91.248 522.545 89.584C519.281 87.856 516.625 85.36 514.577 82.096C512.529 78.768 511.505 74.736 511.505 70C511.505 65.264 512.529 61.264 514.577 58C516.625 54.672 519.281 52.176 522.545 50.512C525.873 48.784 529.393 47.92 533.105 47.92C536.497 47.92 539.377 48.528 541.745 49.744C544.177 50.96 546.097 52.496 547.505 54.352V48.88H560.081V87.28C560.081 92.72 559.025 97.296 556.913 101.008C554.801 104.784 551.857 107.632 548.081 109.552C544.305 111.472 539.761 112.432 534.449 112.432ZM536.177 81.136C538.353 81.136 540.273 80.72 541.937 79.888C543.601 78.992 544.913 77.712 545.873 76.048C546.833 74.384 547.313 72.368 547.313 70C547.313 67.632 546.833 65.616 545.873 63.952C544.913 62.288 543.601 61.04 541.937 60.208C540.273 59.312 538.353 58.864 536.177 58.864C534.065 58.864 532.145 59.312 530.417 60.208C528.753 61.04 527.441 62.288 526.481 63.952C525.521 65.616 525.041 67.632 525.041 70C525.041 72.368 525.521 74.384 526.481 76.048C527.441 77.712 528.753 78.992 530.417 79.888C532.145 80.72 534.065 81.136 536.177 81.136ZM569.543 94V48.88H582.791V94H569.543ZM576.167 41.968C573.799 41.968 571.943 41.296 570.599 39.952C569.255 38.544 568.583 36.784 568.583 34.672C568.583 32.56 569.255 30.832 570.599 29.488C571.943 28.144 573.799 27.472 576.167 27.472C578.471 27.472 580.295 28.176 581.639 29.584C583.047 30.928 583.751 32.656 583.751 34.768C583.751 36.88 583.047 38.608 581.639 39.952C580.295 41.296 578.471 41.968 576.167 41.968ZM592.372 94V48.88H604.948V54.352C606.356 52.368 608.212 50.8 610.516 49.648C612.82 48.496 615.7 47.92 619.156 47.92C624.212 47.92 628.212 49.392 631.156 52.336C634.1 55.216 635.572 59.696 635.572 65.776V94H622.324V67.792C622.324 64.976 621.716 62.896 620.5 61.552C619.348 60.144 617.524 59.44 615.028 59.44C612.148 59.44 609.844 60.4 608.116 62.32C606.452 64.176 605.62 66.896 605.62 70.48V94H592.372ZM668.435 94.96C663.763 94.96 659.507 94.096 655.667 92.368C651.827 90.576 648.755 87.952 646.451 84.496C644.147 80.976 642.995 76.624 642.995 71.44C642.995 66.64 644.051 62.48 646.163 58.96C648.275 55.44 651.123 52.72 654.707 50.8C658.291 48.88 662.323 47.92 666.803 47.92C671.347 47.92 675.315 48.752 678.707 50.416C682.163 52.08 684.851 54.416 686.771 57.424C688.691 60.368 689.651 63.76 689.651 67.6C689.651 68.752 689.491 70.032 689.171 71.44C688.851 72.784 688.435 73.936 687.923 74.896H656.531C656.851 76.944 657.555 78.672 658.643 80.08C659.731 81.424 661.235 82.448 663.155 83.152C665.075 83.856 667.283 84.208 669.779 84.208C672.403 84.208 674.867 83.824 677.171 83.056C679.475 82.224 681.651 81.136 683.699 79.792L687.731 89.104C684.979 91.024 681.971 92.496 678.707 93.52C675.507 94.48 672.083 94.96 668.435 94.96ZM656.531 66.256H676.019C676.083 66.128 676.115 66 676.115 65.872C676.115 65.744 676.115 65.552 676.115 65.296C676.115 63.824 675.795 62.576 675.155 61.552C674.515 60.464 673.523 59.632 672.179 59.056C670.899 58.416 669.235 58.096 667.187 58.096C665.331 58.096 663.635 58.448 662.099 59.152C660.627 59.792 659.411 60.72 658.451 61.936C657.491 63.152 656.851 64.592 656.531 66.256Z" fill="url(#paint1_linear_1063_3754)"/>
<defs>
<linearGradient id="paint0_linear_1063_3754" x1="25.3763" y1="27.3982" x2="112.348" y2="119.812" gradientUnits="userSpaceOnUse">
<stop stop-color="#FF1300"/>
<stop offset="1" stop-color="#FF6E01"/>
</linearGradient>
<linearGradient id="paint1_linear_1063_3754" x1="211.405" y1="22.7408" x2="241.994" y2="217.085" gradientUnits="userSpaceOnUse">
<stop stop-color="#FF1300"/>
<stop offset="1" stop-color="#FF6E01"/>
</linearGradient>
</defs>
</svg>
