<svg width="842" height="234" viewBox="0 0 842 234" fill="none" xmlns="http://www.w3.org/2000/svg">
<path d="M112.735 82L110.595 88.5569C108.264 89.5345 105.933 90.5122 103.603 91.4905C101.13 90.9854 98.6506 90.4003 96.1448 90.1071C95.7492 90.5389 85.74 105.469 85.7429 105.623C86.204 106.719 86.9959 107.661 87.5949 108.686L124 121.088L160.405 108.686C161.004 107.661 161.796 106.719 162.257 105.623C162.259 105.469 152.251 90.5389 151.855 90.1071C149.349 90.4003 146.87 90.9854 144.397 91.4905C142.067 90.5122 139.736 89.5345 137.405 88.5569L135.265 82H112.735ZM90.3675 113.196C90.3224 113.183 90.2316 113.248 90.2283 113.27C89.7897 116.738 88.9328 123.676 88.9328 123.676L91.151 132.977L107.933 140.372L124 134.544L140.067 140.372L156.849 132.977L159.067 123.676C159.067 123.676 158.21 116.738 157.772 113.27C157.768 113.241 157.607 113.134 157.607 113.242C146.621 117.03 135.162 120.698 124 124.434C112.838 120.698 101.378 117.03 90.3922 113.242C90.3922 113.215 90.3825 113.201 90.3675 113.196ZM98.8075 121.486C104.078 123.25 109.392 125.001 114.706 126.752C114.626 127.292 114.492 127.823 114.304 128.338C113.518 130.402 111.919 132.079 109.858 132.999C107.797 133.92 105.443 134.009 103.314 133.247C101.185 132.485 99.4563 130.934 98.5069 128.935C97.5575 126.936 97.4657 124.654 98.2516 122.59C98.4086 122.209 98.5943 121.84 98.8075 121.486ZM149.193 121.486C149.406 121.84 149.591 122.209 149.748 122.59C150.534 124.654 150.443 126.936 149.493 128.935C148.544 130.934 146.814 132.485 144.686 133.247C142.557 134.009 140.203 133.92 138.142 132.999C136.081 132.079 134.482 130.402 133.696 128.338C133.508 127.823 133.374 127.292 133.294 126.752C138.608 125.001 143.922 123.25 149.193 121.486ZM86.03 127.373L82 131.245L88.0372 151.774L107.119 159.364L106.092 143.394L87.9962 135.228L86.03 127.373ZM161.97 127.373L160.004 135.228L141.908 143.394L140.881 159.364L159.963 151.774L166 131.245L161.97 127.373ZM124 137.947L109.691 143.438L110.56 160.69L124 166L137.44 160.69L138.309 143.438L124 137.947Z" fill="url(#paint0_linear_1080_3816)"/>
<path d="M196.432 158V93.872H223.984C231.92 93.872 237.968 95.536 242.128 98.864C246.352 102.192 248.464 107.184 248.464 113.84C248.464 119.152 247.152 123.344 244.528 126.416C241.904 129.424 238.128 131.504 233.2 132.656L251.728 158H235.312L218.608 133.712H210.448V158H196.432ZM210.448 122.672H221.68C226.096 122.672 229.296 122 231.28 120.656C233.328 119.248 234.352 117.008 234.352 113.936C234.352 110.8 233.36 108.56 231.376 107.216C229.392 105.808 226.16 105.104 221.68 105.104H210.448V122.672ZM279.135 158.96C274.463 158.96 270.207 158.096 266.367 156.368C262.527 154.576 259.455 151.952 257.151 148.496C254.847 144.976 253.695 140.624 253.695 135.44C253.695 130.64 254.751 126.48 256.863 122.96C258.975 119.44 261.823 116.72 265.407 114.8C268.991 112.88 273.023 111.92 277.503 111.92C282.047 111.92 286.015 112.752 289.407 114.416C292.863 116.08 295.551 118.416 297.471 121.424C299.391 124.368 300.351 127.76 300.351 131.6C300.351 132.752 300.191 134.032 299.871 135.44C299.551 136.784 299.135 137.936 298.623 138.896H267.231C267.551 140.944 268.255 142.672 269.343 144.08C270.431 145.424 271.935 146.448 273.855 147.152C275.775 147.856 277.983 148.208 280.479 148.208C283.103 148.208 285.567 147.824 287.871 147.056C290.175 146.224 292.351 145.136 294.399 143.792L298.431 153.104C295.679 155.024 292.671 156.496 289.407 157.52C286.207 158.48 282.783 158.96 279.135 158.96ZM267.231 130.256H286.719C286.783 130.128 286.815 130 286.815 129.872C286.815 129.744 286.815 129.552 286.815 129.296C286.815 127.824 286.495 126.576 285.855 125.552C285.215 124.464 284.223 123.632 282.879 123.056C281.599 122.416 279.935 122.096 277.887 122.096C276.031 122.096 274.335 122.448 272.799 123.152C271.327 123.792 270.111 124.72 269.151 125.936C268.191 127.152 267.551 128.592 267.231 130.256ZM327.093 158.96C323.061 158.96 319.413 158.032 316.149 156.176C312.885 154.256 310.293 151.536 308.373 148.016C306.453 144.432 305.493 140.24 305.493 135.44C305.493 130.576 306.453 126.384 308.373 122.864C310.293 119.344 312.885 116.656 316.149 114.8C319.413 112.88 323.061 111.92 327.093 111.92C330.165 111.92 332.853 112.464 335.157 113.552C337.461 114.576 339.317 115.984 340.725 117.776V93.872H354.069V158H341.493V152.24C340.085 154.288 338.133 155.92 335.637 157.136C333.205 158.352 330.357 158.96 327.093 158.96ZM330.165 147.44C332.405 147.44 334.357 146.96 336.021 146C337.685 145.04 338.997 143.664 339.957 141.872C340.917 140.016 341.397 137.872 341.397 135.44C341.397 132.944 340.917 130.8 339.957 129.008C338.997 127.216 337.685 125.84 336.021 124.88C334.357 123.92 332.405 123.44 330.165 123.44C327.989 123.44 326.037 123.92 324.309 124.88C322.645 125.84 321.333 127.216 320.373 129.008C319.477 130.8 319.029 132.944 319.029 135.44C319.029 137.872 319.477 140.016 320.373 141.872C321.333 143.664 322.645 145.04 324.309 146C326.037 146.96 327.989 147.44 330.165 147.44ZM386.091 158.96C381.291 158.96 377.003 158 373.227 156.08C369.515 154.096 366.603 151.344 364.491 147.824C362.379 144.24 361.323 140.112 361.323 135.44C361.323 130.704 362.379 126.576 364.491 123.056C366.603 119.536 369.515 116.816 373.227 114.896C376.939 112.912 381.227 111.92 386.091 111.92C390.955 111.92 395.243 112.912 398.955 114.896C402.667 116.816 405.579 119.536 407.691 123.056C409.803 126.576 410.859 130.704 410.859 135.44C410.859 140.112 409.803 144.24 407.691 147.824C405.579 151.344 402.667 154.096 398.955 156.08C395.243 158 390.955 158.96 386.091 158.96ZM386.091 147.44C388.331 147.44 390.283 146.96 391.947 146C393.675 145.04 394.987 143.664 395.883 141.872C396.843 140.016 397.323 137.872 397.323 135.44C397.323 132.944 396.843 130.8 395.883 129.008C394.987 127.216 393.675 125.84 391.947 124.88C390.283 123.92 388.331 123.44 386.091 123.44C383.851 123.44 381.867 123.92 380.139 124.88C378.475 125.84 377.163 127.216 376.203 129.008C375.307 130.8 374.859 132.944 374.859 135.44C374.859 137.872 375.307 140.016 376.203 141.872C377.163 143.664 378.475 145.04 380.139 146C381.867 146.96 383.851 147.44 386.091 147.44ZM439.356 158.576C433.724 158.576 429.66 157.36 427.164 154.928C424.732 152.496 423.516 148.752 423.516 143.696V123.728H414.396V112.88H423.516V100.016H436.86V112.88H447.804V123.728H436.86V142.352C436.86 144.144 437.308 145.488 438.204 146.384C439.164 147.28 440.54 147.728 442.332 147.728C443.1 147.728 444.028 147.696 445.116 147.632C446.204 147.568 447.1 147.472 447.804 147.344V157.616C446.716 157.936 445.404 158.16 443.868 158.288C442.396 158.48 440.892 158.576 439.356 158.576Z" fill="white"/>
<path d="M475.912 158V93.872H522.568V105.68H489.928V119.408H519.688V130.544H489.928V146.192H522.568V158H475.912ZM530.882 158V112.88H543.458V118.352C544.866 116.368 546.722 114.8 549.026 113.648C551.33 112.496 554.21 111.92 557.666 111.92C562.722 111.92 566.722 113.392 569.666 116.336C572.611 119.216 574.083 123.696 574.083 129.776V158H560.834V131.792C560.834 128.976 560.226 126.896 559.01 125.552C557.858 124.144 556.034 123.44 553.538 123.44C550.658 123.44 548.354 124.4 546.626 126.32C544.962 128.176 544.13 130.896 544.13 134.48V158H530.882ZM604.449 176.432C600.545 176.432 596.865 175.856 593.409 174.704C589.953 173.616 586.657 171.888 583.521 169.52L587.649 159.824C590.657 161.808 593.505 163.216 596.193 164.048C598.881 164.88 601.441 165.296 603.873 165.296C607.841 165.296 610.977 164.304 613.281 162.32C615.585 160.336 616.737 157.424 616.737 153.584V150.416C615.329 152.08 613.473 153.456 611.169 154.544C608.929 155.568 606.241 156.08 603.105 156.08C599.393 156.08 595.873 155.248 592.545 153.584C589.281 151.856 586.625 149.36 584.577 146.096C582.529 142.768 581.505 138.736 581.505 134C581.505 129.264 582.529 125.264 584.577 122C586.625 118.672 589.281 116.176 592.545 114.512C595.873 112.784 599.393 111.92 603.105 111.92C606.497 111.92 609.377 112.528 611.745 113.744C614.177 114.96 616.097 116.496 617.505 118.352V112.88H630.081V151.28C630.081 156.72 629.025 161.296 626.913 165.008C624.801 168.784 621.857 171.632 618.081 173.552C614.305 175.472 609.761 176.432 604.449 176.432ZM606.177 145.136C608.353 145.136 610.273 144.72 611.937 143.888C613.601 142.992 614.913 141.712 615.873 140.048C616.833 138.384 617.313 136.368 617.313 134C617.313 131.632 616.833 129.616 615.873 127.952C614.913 126.288 613.601 125.04 611.937 124.208C610.273 123.312 608.353 122.864 606.177 122.864C604.065 122.864 602.145 123.312 600.417 124.208C598.753 125.04 597.441 126.288 596.481 127.952C595.521 129.616 595.041 131.632 595.041 134C595.041 136.368 595.521 138.384 596.481 140.048C597.441 141.712 598.753 142.992 600.417 143.888C602.145 144.72 604.065 145.136 606.177 145.136ZM639.543 158V112.88H652.791V158H639.543ZM646.167 105.968C643.799 105.968 641.943 105.296 640.599 103.952C639.255 102.544 638.583 100.784 638.583 98.672C638.583 96.56 639.255 94.832 640.599 93.488C641.943 92.144 643.799 91.472 646.167 91.472C648.471 91.472 650.295 92.176 651.639 93.584C653.047 94.928 653.751 96.656 653.751 98.768C653.751 100.88 653.047 102.608 651.639 103.952C650.295 105.296 648.471 105.968 646.167 105.968ZM662.372 158V112.88H674.948V118.352C676.356 116.368 678.212 114.8 680.516 113.648C682.82 112.496 685.7 111.92 689.156 111.92C694.212 111.92 698.212 113.392 701.156 116.336C704.1 119.216 705.572 123.696 705.572 129.776V158H692.324V131.792C692.324 128.976 691.716 126.896 690.5 125.552C689.348 124.144 687.524 123.44 685.028 123.44C682.148 123.44 679.844 124.4 678.116 126.32C676.452 128.176 675.62 130.896 675.62 134.48V158H662.372ZM738.435 158.96C733.763 158.96 729.507 158.096 725.667 156.368C721.827 154.576 718.755 151.952 716.451 148.496C714.147 144.976 712.995 140.624 712.995 135.44C712.995 130.64 714.051 126.48 716.163 122.96C718.275 119.44 721.123 116.72 724.707 114.8C728.291 112.88 732.323 111.92 736.803 111.92C741.347 111.92 745.315 112.752 748.707 114.416C752.163 116.08 754.851 118.416 756.771 121.424C758.691 124.368 759.651 127.76 759.651 131.6C759.651 132.752 759.491 134.032 759.171 135.44C758.851 136.784 758.435 137.936 757.923 138.896H726.531C726.851 140.944 727.555 142.672 728.643 144.08C729.731 145.424 731.235 146.448 733.155 147.152C735.075 147.856 737.283 148.208 739.779 148.208C742.403 148.208 744.867 147.824 747.171 147.056C749.475 146.224 751.651 145.136 753.699 143.792L757.731 153.104C754.979 155.024 751.971 156.496 748.707 157.52C745.507 158.48 742.083 158.96 738.435 158.96ZM726.531 130.256H746.019C746.083 130.128 746.115 130 746.115 129.872C746.115 129.744 746.115 129.552 746.115 129.296C746.115 127.824 745.795 126.576 745.155 125.552C744.515 124.464 743.523 123.632 742.179 123.056C740.899 122.416 739.235 122.096 737.187 122.096C735.331 122.096 733.635 122.448 732.099 123.152C730.627 123.792 729.411 124.72 728.451 125.936C727.491 127.152 726.851 128.592 726.531 130.256Z" fill="url(#paint1_linear_1080_3816)"/>
<path d="M708.432 82V17.872H735.984C743.92 17.872 749.968 19.536 754.128 22.864C758.352 26.192 760.464 31.184 760.464 37.84C760.464 43.152 759.152 47.344 756.528 50.416C753.904 53.424 750.128 55.504 745.2 56.656L763.728 82H747.312L730.608 57.712H722.448V82H708.432ZM722.448 46.672H733.68C738.096 46.672 741.296 46 743.28 44.656C745.328 43.248 746.352 41.008 746.352 37.936C746.352 34.8 745.36 32.56 743.376 31.216C741.392 29.808 738.16 29.104 733.68 29.104H722.448V46.672Z" fill="#616161"/>
<path d="M82 226.568L17.872 226.568L17.872 199.016C17.872 191.08 19.536 185.032 22.864 180.872C26.192 176.648 31.184 174.536 37.84 174.536C43.152 174.536 47.344 175.848 50.416 178.472C53.424 181.096 55.504 184.872 56.656 189.8L82 171.272L82 187.688L57.712 204.392L57.712 212.552L82 212.552L82 226.568ZM46.672 212.552L46.672 201.32C46.672 196.904 46 193.704 44.656 191.72C43.248 189.672 41.008 188.648 37.936 188.648C34.8 188.648 32.56 189.64 31.216 191.624C29.808 193.608 29.104 196.84 29.104 201.32L29.104 212.552L46.672 212.552Z" fill="#616161"/>
<rect x="17.5" y="17.5" width="810" height="209" stroke="#616161"/>
<line x1="17" y1="165.5" x2="827" y2="165.5" stroke="#616161"/>
<line x1="17" y1="81.5" x2="827" y2="81.5" stroke="#616161"/>
<line x1="81.5" y1="226.998" x2="82.5354" y2="16.9977" stroke="#616161"/>
<line x1="763.5" y1="227" x2="763.5" y2="17" stroke="#616161"/>
<defs>
<linearGradient id="paint0_linear_1080_3816" x1="95.3763" y1="91.3982" x2="182.348" y2="183.812" gradientUnits="userSpaceOnUse">
<stop stop-color="#FF1300"/>
<stop offset="1" stop-color="#FF6E01"/>
</linearGradient>
<linearGradient id="paint1_linear_1080_3816" x1="281.405" y1="86.7408" x2="311.994" y2="281.085" gradientUnits="userSpaceOnUse">
<stop stop-color="#FF1300"/>
<stop offset="1" stop-color="#FF6E01"/>
</linearGradient>
</defs>
</svg>
